<svg xmlns="http://www.w3.org/2000/svg" version="1.1" xmlns:xlink="http://www.w3.org/1999/xlink" xmlns:svgjs="http://svgjs.dev/svgjs" width="1000" height="343" viewBox="0 0 1000 343"><g transform="matrix(1,0,0,1,-0.6060606060606233,-0.42242911751878864)"><svg viewBox="0 0 396 136" data-background-color="#ffffff" preserveAspectRatio="xMidYMid meet" height="343" width="1000" xmlns="http://www.w3.org/2000/svg" xmlns:xlink="http://www.w3.org/1999/xlink"><g id="tight-bounds" transform="matrix(1,0,0,1,0.2400000000000091,0.16749376088208123)"><svg viewBox="0 0 395.52 135.66501247823584" height="135.66501247823584" width="395.52"><g><svg viewBox="0 0 659.3381706443093 226.15574723866663" height="135.66501247823584" width="395.52"><g transform="matrix(1,0,0,1,261.8405706443094,58.03651662382522)"><svg viewBox="0 0 397.4975999999999 110.08271399101619" height="110.08271399101619" width="397.4975999999999"><g id="textblocktransform"><svg viewBox="0 0 397.4975999999999 110.08271399101619" height="110.08271399101619" width="397.4975999999999" id="textblock"><g></g><g transform="matrix(1,0,0,1,0.9887999999999693,0)"><svg viewBox="0 0 395.52 68.56713026444663" height="68.56713026444663" width="395.52"><g transform="matrix(1,0,0,1,0,0)"><svg width="395.52" viewBox="1 -35.2 204.18 35.400000000000006" height="68.56713026444663" data-palette-color="url(#72a09824-d485-4383-813d-f40b7225dcee)"></svg></g></svg></g><g transform="matrix(1,0,0,1,0,89.31893329285143)"><svg viewBox="0 0 232.209792 20.763780698164776" height="20.763780698164776" width="232.209792"><g transform="matrix(1,0,0,1,0,0)"><svg width="232.209792" viewBox="-0.5 -33.75 384.11 34.35" height="20.763780698164776" data-palette-color="#bb84e8"><path d="M34.95-1.2L34.95 0 21.45 0 21.45-1.05 25.35-1.65 20.95-13.15 9.7-13.15 5.5-2.5 9.95-1.2 9.95 0-0.5 0-0.5-1.2 3.3-2.5 15.6-33.4 18.05-33.4 31.1-1.65 34.95-1.2ZM10.4-15L20.2-15 15.3-27.15 10.4-15ZM49.65-1.2L49.65 0 35.8 0 35.8-1.2 40.15-1.65 40.15-31.75 35.8-32.2 35.8-33.4 49.65-33.4 49.65-32.2 45.3-31.75 45.3-1.65 49.65-1.2ZM97.49-1.2L97.49 0 83.99 0 83.99-1.05 87.89-1.65 83.49-13.15 72.24-13.15 68.04-2.5 72.49-1.2 72.49 0 62.04 0 62.04-1.2 65.84-2.5 78.14-33.4 80.59-33.4 93.64-1.65 97.49-1.2ZM72.94-15L82.74-15 77.84-27.15 72.94-15ZM113.94-25L113.94-25Q115.24-25 115.99-24.38 116.74-23.75 116.74-22.65L116.74-22.65Q116.74-20.75 115.29-20.15L115.29-20.15Q114.49-20.8 112.39-20.8 110.29-20.8 108.37-19.43 106.44-18.05 106.44-16.3L106.44-16.3 106.44-1.45 110.94-1.2 110.94 0 98.24 0 98.24-1.2 101.54-1.4 101.54-22.75 97.59-22.95 97.59-24.1 106.44-24.65 106.14-18.5 106.34-18.5Q107.19-21.2 109.47-23.1 111.74-25 113.94-25ZM134.69-5.2L134.69-5.2Q134.69-5.05 134.64-4.85L134.64-4.85Q133.84-2.4 131.96-0.93 130.09 0.55 127.59 0.55 125.09 0.55 123.41-0.88 121.74-2.3 121.74-6.45L121.74-6.45Q121.74-7.6 121.99-23.1L121.99-23.1 118.54-23.1 118.54-24.4 122.04-24.4 122.09-31.75 126.99-31.75 126.84-24.4 133.99-24.4 133.99-23.1 126.84-23.1Q126.59-6.95 126.59-4.2L126.59-4.2Q126.59-0.85 128.79-0.85L128.79-0.85Q130.14-0.85 131.61-2.4 133.09-3.95 133.69-5.9L133.69-5.9Q134.69-5.9 134.69-5.2ZM180.93-12.75L180.93-0.9Q176.13 0.3 169.93 0.3L169.93 0.3Q159.53 0.3 154.63-4.7L154.63-4.7Q152.83-6.5 151.76-9.38 150.68-12.25 150.68-16.4 150.68-20.55 152.31-24.08 153.93-27.6 156.73-29.65L156.73-29.65Q162.28-33.75 169.93-33.75L169.93-33.75 180.23-33.3 180.53-24.2 178.93-24.2 177.23-30.75Q174.53-31.9 170.83-31.9L170.83-31.9Q164.78-31.9 160.81-27.93 156.83-23.95 156.83-16.35 156.83-8.75 160.71-5.13 164.58-1.5 170.63-1.5L170.63-1.5Q173.58-1.5 176.03-2.1L176.03-2.1 176.03-12.75 171.88-13.2 171.88-14.4 183.93-14.4 183.93-13.2 180.93-12.75ZM199.23 0.55Q194.08 0.55 190.93-2.95 187.78-6.45 187.78-12.2 187.78-17.95 191.11-21.45 194.43-24.95 199.48-24.95 204.53-24.95 207.03-22.68 209.53-20.4 209.53-16.35L209.53-16.35Q209.53-15.15 209.33-13.95L209.33-13.95 193.18-13.95 193.18-12.2Q193.18-6.6 194.78-3.73 196.38-0.85 200.03-0.85L200.03-0.85Q205.18-0.85 207.98-5.35L207.98-5.35Q209.08-5 209.08-4.3L209.08-4.3Q209.08-3.05 206.78-1.4L206.78-1.4Q205.68-0.6 203.68-0.03 201.68 0.55 199.23 0.55L199.23 0.55ZM204.78-17.4L204.78-17.4Q204.78-19.7 203.83-21.35L203.83-21.35Q202.53-23.55 199.63-23.55L199.63-23.55Q194.23-23.55 193.33-15.75L193.33-15.75 204.68-15.75Q204.78-16.6 204.78-17.4ZM221.53-19.15L221.98-19.1Q224.23-24.9 231.03-24.9L231.03-24.9Q234.43-24.9 236.53-22.88 238.63-20.85 238.63-17.1L238.63-17.1Q238.63-10.65 238.23-1.45L238.23-1.45 241.68-1.2 241.68 0 230.63 0 230.63-1.2 233.33-1.4Q233.73-12.7 233.73-14.35 233.73-16 233.68-16.88 233.63-17.75 233.4-19.03 233.18-20.3 232.73-21.05L232.73-21.05Q231.63-22.9 229.28-22.9L229.28-22.9Q226.08-22.9 224.03-20.25 221.98-17.6 221.98-14.5L221.98-14.5 221.98-1.45 225.73-1.2 225.73 0 213.78 0 213.78-1.2 217.08-1.45 217.08-22.6 212.83-22.8 212.83-23.95 221.78-24.55 221.53-19.15ZM256.58 0.55Q251.43 0.55 248.28-2.95 245.13-6.45 245.13-12.2 245.13-17.95 248.45-21.45 251.78-24.95 256.83-24.95 261.88-24.95 264.38-22.68 266.88-20.4 266.88-16.35L266.88-16.35Q266.88-15.15 266.68-13.95L266.68-13.95 250.53-13.95 250.53-12.2Q250.53-6.6 252.13-3.73 253.73-0.85 257.38-0.85L257.38-0.85Q262.53-0.85 265.33-5.35L265.33-5.35Q266.43-5 266.43-4.3L266.43-4.3Q266.43-3.05 264.13-1.4L264.13-1.4Q263.03-0.6 261.03-0.03 259.03 0.55 256.58 0.55L256.58 0.55ZM262.13-17.4L262.13-17.4Q262.13-19.7 261.18-21.35L261.18-21.35Q259.88-23.55 256.98-23.55L256.98-23.55Q251.58-23.55 250.68-15.75L250.68-15.75 262.03-15.75Q262.13-16.6 262.13-17.4ZM286.67-25L286.67-25Q287.97-25 288.72-24.38 289.47-23.75 289.47-22.65L289.47-22.65Q289.47-20.75 288.02-20.15L288.02-20.15Q287.22-20.8 285.12-20.8 283.02-20.8 281.1-19.43 279.17-18.05 279.17-16.3L279.17-16.3 279.17-1.45 283.67-1.2 283.67 0 270.97 0 270.97-1.2 274.27-1.4 274.27-22.75 270.32-22.95 270.32-24.1 279.17-24.65 278.87-18.5 279.07-18.5Q279.92-21.2 282.2-23.1 284.47-25 286.67-25ZM296.97-5.4L296.97-5.4Q296.97-2.15 299.62-1.55L299.62-1.55Q300.22-1.4 300.77-1.4L300.77-1.4Q302.67-1.4 304.72-3.03 306.77-4.65 306.87-7.4L306.87-7.4 306.87-11.7Q296.97-11.6 296.97-5.4ZM298.97 0.6L298.97 0.6Q296.12 0.6 294.1-0.98 292.07-2.55 292.07-5.4L292.07-5.4Q292.12-9.25 295.95-11.15 299.77-13.05 306.87-13.05L306.87-13.05 306.87-17.35Q306.87-23.7 302.27-23.7L302.27-23.7Q299.92-23.7 298.47-21.75L298.47-21.75Q297.47-20.4 297.47-18.4L297.47-18.4Q297.47-17.55 297.67-16.6L297.67-16.6Q296.97-16.1 296.25-16.1 295.52-16.1 294.82-16.4L294.82-16.4Q293.22-17 293.22-18.7L293.22-18.7Q293.22-21 294.87-22.5L294.87-22.5Q297.57-24.95 302.32-24.95 307.07-24.95 309.22-22.93 311.37-20.9 311.37-16.55L311.37-16.55 311.37-1.4 315.57-1.2 315.62-0.05 307.27 0.55 306.82-3.9Q304.52 0.6 298.97 0.6ZM333.07-5.2L333.07-5.2Q333.07-5.05 333.02-4.85L333.02-4.85Q332.22-2.4 330.34-0.93 328.47 0.55 325.97 0.55 323.47 0.55 321.79-0.88 320.12-2.3 320.12-6.45L320.12-6.45Q320.12-7.6 320.37-23.1L320.37-23.1 316.92-23.1 316.92-24.4 320.42-24.4 320.47-31.75 325.37-31.75 325.22-24.4 332.37-24.4 332.37-23.1 325.22-23.1Q324.97-6.95 324.97-4.2L324.97-4.2Q324.97-0.85 327.17-0.85L327.17-0.85Q328.52-0.85 329.99-2.4 331.47-3.95 332.07-5.9L332.07-5.9Q333.07-5.9 333.07-5.2ZM361.02-12.2Q361.02-6.65 357.67-3.05 354.32 0.55 348.54 0.55 342.77 0.55 339.42-3.05 336.07-6.65 336.07-12.2 336.07-17.75 339.42-21.35 342.77-24.95 348.54-24.95 354.32-24.95 357.67-21.35 361.02-17.75 361.02-12.2ZM341.52-12.2L341.52-12.2Q341.52-0.65 348.54-0.65 355.57-0.65 355.57-12.2L355.57-12.2Q355.57-17.8 353.97-20.75 352.37-23.7 348.57-23.7 344.77-23.7 343.14-20.75 341.52-17.8 341.52-12.2ZM380.81-25L380.81-25Q382.11-25 382.86-24.38 383.61-23.75 383.61-22.65L383.61-22.65Q383.61-20.75 382.16-20.15L382.16-20.15Q381.36-20.8 379.26-20.8 377.16-20.8 375.24-19.43 373.31-18.05 373.31-16.3L373.31-16.3 373.31-1.45 377.81-1.2 377.81 0 365.11 0 365.11-1.2 368.41-1.4 368.41-22.75 364.46-22.95 364.46-24.1 373.31-24.65 373.01-18.5 373.21-18.5Q374.06-21.2 376.34-23.1 378.61-25 380.81-25Z" opacity="1" transform="matrix(1,0,0,1,0,0)" fill="#bb84e8" class="slogan-text-1" data-fill-palette-color="secondary" id="text-1"></path></svg></g></svg></g></svg></g></svg></g><g><svg viewBox="0 0 245.65351679999995 226.15574723866663" height="226.15574723866663" width="245.65351679999995"><g><svg xmlns="http://www.w3.org/2000/svg" xmlns:xlink="http://www.w3.org/1999/xlink" version="1.1" x="0" y="0" viewBox="9.398 12.339999999999998 80.193 73.82799999999999" enable-background="new 0 0 100 100" xml:space="preserve" height="226.15574723866663" width="245.65351679999995" class="icon-icon-0" data-fill-palette-color="accent" id="icon-0"><g fill="#bb84e8" data-fill-palette-color="accent"><path d="M55.894 49.046c0 0.515 0 1.027 0 1.992 0 2.509 1.142 3.675 3.328 3.675 0.708 0 2.05 0 2.757 0 2.606 0 4.379 2.119 4.379 4.375 0 0.386 0 1.611 0 2.318 0 2.509-1.137 4.021-3.795 4.021-0.451 0-2.682 0-3.196 0-2.796 0-4.253-1.278-4.253-3.889 0-0.386 0-1.515 0-2.158 0-2.059-1.479-3.41-3.281-3.41-0.579 0-4.052 0-4.759 0-2.38 0-2.959 1.608-2.959 3.41 0 0.644 0 3.284 0 4.249 0 2.252 1.351 3.024 3.088 3.024 0.836 0 2.03 0 2.931 0 3.31 0 4.9 1.452 4.9 3.77 0 0.772 0 0.379 0 1.601 0 2.634 1.498 3.632 3.881 3.632 1.865 0 4.272 0 4.915 0 2.433 0 3.622-1.284 3.622-3.479 0-0.901 0-1.024 0-1.796 0-3.023 1.676-3.988 4.893-3.988 0.9 0 2.934 0 3.384 0 1.866 0 2.725-1.158 2.725-2.702 0-1.543 0-4.181 0-6.24 0-2.058-1.158-3.023-3.409-3.023-0.966 0-2.896 0-4.054 0-2.419 0-4.588-1.829-4.588-5.21 0-1.094 0-0.898 0-1.992 0-2.509-1.142-3.675-3.329-3.675-0.708 0-2.049 0-2.757 0-2.606 0-4.379-2.118-4.379-4.374 0-0.386 0-1.611 0-2.318 0-2.509 1.138-4.021 3.796-4.021 0.45 0 2.681 0 3.195 0 2.796 0 4.254 1.278 4.254 3.889 0 0.386 0 1.515 0 2.158 0 2.059 1.479 3.409 3.281 3.409 0.579 0 4.05 0 4.758 0 2.38 0 2.959-1.608 2.959-3.409 0-0.644 0-3.284 0-4.249 0-2.251-1.351-3.023-3.088-3.023-0.836 0-2.03 0-2.931 0-3.31 0-4.9-1.452-4.9-3.77 0-0.772 0-0.293 0-1.516 0-2.633-1.425-3.717-3.808-3.717-1.865 0-4.345 0-4.988 0-2.433 0-3.622 1.284-3.622 3.48 0 0.9 0 1.023 0 1.795 0 3.023-1.676 3.988-4.893 3.988-0.9 0-2.935 0-3.385 0-1.865 0-2.724 1.158-2.724 2.702s0 4.181 0 6.24 1.157 3.024 3.41 3.024c0.964 0 2.894 0 4.052 0C53.725 43.836 55.894 45.665 55.894 49.046z" fill="#bb84e8" data-fill-palette-color="accent"></path><path d="M86.07 54.482c1.945 0 3.521-1.577 3.521-3.521v-2.688c0-1.945-1.576-3.522-3.521-3.522h-2.688c-1.944 0-3.521 1.577-3.521 3.522v2.688c0 1.945 1.577 3.521 3.521 3.521H86.07z" fill="#bb84e8" data-fill-palette-color="accent"></path><path d="M36.547 31.871c1.158 0 2.042 0 3.008 0 2.251 0 3.409-0.965 3.409-3.023 0-0.569 0-1.649 0-1.974 0.113-3.194 2.224-4.658 4.578-4.658 1.157 0 2.043 0 3.008 0 2.253 0 3.41-0.965 3.41-3.023s0-2.607 0-4.151-0.858-2.702-2.724-2.702c-0.45 0-4.795 0-5.695 0-1.846 0-2.631 0.855-2.631 2.782 0 0.708 0 2.047 0 2.434 0 2.195-1.681 4.253-4.171 4.364-1.486 0-3.597 0-4.194 0-1.845 0-2.631 0.855-2.631 2.782 0 0.708 0 2.123 0 2.508 0 2.256-1.771 4.375-4.379 4.375-0.707 0-2.049 0-2.757 0-2.188 0-3.329 1.165-3.329 3.674 0 1.093 0 1.978 0 3.071 0 3.381-2.168 5.21-4.588 5.21-1.158 0-3.088 0-4.054 0-2.251 0-3.409 0.965-3.409 3.023 0 0.267 0 6.5 0 6.766 0 2.059 1.158 3.023 3.409 3.023 0.966 0 2.896 0 4.054 0 2.42 0 4.588 1.049 4.588 4.431 0 1.093 0 1.318 0 2.412 0 2.509 1.142 3.674 3.329 3.674 0.708 0 2.05 0 2.757 0 2.607 0 4.379 2.119 4.379 4.375 0 0.386 0 1.831 0 2.539 0 1.927 0.786 2.782 2.631 2.782 0.6 0 2.726 0 4.213 0l-0.021 0.024c2.491 0.11 4.171 2.169 4.171 4.364 0 0.386 0 1.726 0 2.433 0 1.927 0.785 2.782 2.631 2.782 0.9 0 5.244 0 5.694 0 1.866 0 2.725-1.158 2.725-2.702s0-2.092 0-4.151-1.158-3.024-3.409-3.024c-0.965 0-1.851 0-3.009 0-2.348 0-4.453-1.457-4.576-4.633 0-0.379 0-1.372 0-2.053 0-2.059-1.158-3.023-3.409-3.023-0.966 0-1.85 0-3.008 0-2.421 0-4.59-1.828-4.59-5.209 0-0.515 0-0.667 0-1.633 0-2.509 1.143-3.674 3.33-3.674 0.708 0 2.049 0 2.756 0 2.607 0 4.38-2.119 4.38-4.375 0-0.255 0-3.236 0-3.491 0-2.256-1.772-4.375-4.38-4.375-0.707 0-2.048 0-2.756 0-2.188 0-3.33-1.166-3.33-3.674 0-0.965 0-2.845 0-3.36C31.957 33.411 34.126 31.871 36.547 31.871z" fill="#bb84e8" data-fill-palette-color="accent"></path></g></svg></g></svg></g></svg></g><defs></defs><mask id="700e6357-c2b8-4975-a266-41c393c8346c"><g id="SvgjsG1010"><svg viewBox="0 0 395.52 135.66501247823584" height="135.66501247823584" width="395.52"><g><svg viewBox="0 0 659.3381706443093 226.15574723866663" height="135.66501247823584" width="395.52"><g transform="matrix(1,0,0,1,261.8405706443094,58.03651662382522)"><svg viewBox="0 0 397.4975999999999 110.08271399101619" height="110.08271399101619" width="397.4975999999999"><g id="SvgjsG1009"><svg viewBox="0 0 397.4975999999999 110.08271399101619" height="110.08271399101619" width="397.4975999999999" id="SvgjsSvg1008"><g><rect width="397.4975999999999" height="6.18345456852623" x="0" y="75.85130449438591" fill="white" opacity="1" stroke-width="0" stroke="transparent" fill-opacity="1" class="rect-r$-0" rx="1%" id="SvgjsRect1007" data-palette-color="url(#72a09824-d485-4383-813d-f40b7225dcee)"></rect></g><g transform="matrix(1,0,0,1,0.9887999999999693,0)"><svg viewBox="0 0 395.52 68.56713026444663" height="68.56713026444663" width="395.52"><g transform="matrix(1,0,0,1,0,0)"><svg width="395.52" viewBox="1 -35.2 204.18 35.400000000000006" height="68.56713026444663" data-palette-color="url(#72a09824-d485-4383-813d-f40b7225dcee)"><path d="M27.65-32.25L24.65-32.25 24.65-35 34.45-35 34.45-32.25 30.85-32.25 19.45 0 16.15 0 4.3-32.25 1-32.25 1-35 11.1-35 11.1-32.25 7.65-32.25 18.05-3.8 27.65-32.25ZM40.75-32.25L37.45-32.25 37.45-35 47.55-35 47.55-32.25 44.15-32.25 44.15-2.75 47.55-2.75 47.55 0 37.45 0 37.45-2.75 40.75-2.75 40.75-32.25ZM60.95-2.95L60.95-2.95Q66.5-2.95 69.2-5.75L69.2-5.75Q70.75-7.35 70.75-9.55 70.75-11.75 69.67-13.18 68.6-14.6 66.9-15.38 65.2-16.15 63.12-16.73 61.05-17.3 58.97-17.95 56.9-18.6 55.2-19.5 53.5-20.4 52.42-22.05 51.35-23.7 51.35-26L51.35-26Q51.35-30 54.35-32.55 57.35-35.1 62.3-35.1 67.25-35.1 71.6-34.1L71.6-34.1 71.6-34.05 71.75-34.05 72.3-27.8 69.85-27.4 69.3-31.6Q66.5-32.1 63.12-32.1 59.75-32.1 57.25-30.63 54.75-29.15 54.75-26.45 54.75-23.75 56.75-22.35 58.75-20.95 61.6-20.23 64.45-19.5 67.3-18.6 70.15-17.7 72.15-15.5 74.15-13.3 74.15-9.7L74.15-9.7Q74.15-4.85 70.55-2.4 66.95 0.05 61.6 0.05L61.6 0.05Q54.85 0.05 50.3-3L50.3-3 50.35-8.3 52.8-8.55 52.9-4.75Q56.7-2.95 60.95-2.95ZM80.69-32.25L77.39-32.25 77.39-35 87.49-35 87.49-32.25 84.09-32.25 84.09-2.75 87.49-2.75 87.49 0 77.39 0 77.39-2.75 80.69-2.75 80.69-32.25ZM91.44-17.4L91.44-17.4Q91.44-25.55 95.67-30.38 99.89-35.2 106.19-35.2L106.19-35.2Q120.94-35.2 120.94-17.4L120.94-17.4Q120.94-9.3 116.74-4.55 112.54 0.2 106.19 0.2L106.19 0.2Q91.44 0.2 91.44-17.4ZM94.84-17.5L94.84-17.5Q94.84-2.8 106.19-2.8L106.19-2.8Q111.09-2.8 114.32-6.7 117.54-10.6 117.54-17.5L117.54-17.5Q117.54-32.2 106.19-32.2L106.19-32.2Q101.29-32.2 98.07-28.28 94.84-24.35 94.84-17.5ZM127.44-32.25L124.24-32.25 124.24-35 131.09-35 150.99-4.5 150.79-32.25 147.54-32.25 147.54-35 157.09-35 157.09-32.25 153.94-32.25 153.94 0 150.29 0 130.34-30.5 130.54-2.75 134.34-2.75 134.34 0 124.24 0 124.24-2.75 127.44-2.75 127.44-32.25ZM205.18 0L194.38 0 194.38-2.75 197.83-2.75 189.73-16.1 182.08-2.75 185.63-2.75 185.63 0 175.33 0 175.33-2.75 178.68-2.75 188.18-18.65 179.58-32.25 176.33-32.25 176.33-35 186.43-35 186.43-32.25 183.43-32.25 190.38-20.7 196.98-32.25 193.98-32.25 193.98-35 203.78-35 203.78-32.25 200.43-32.25 191.93-18.15 201.63-2.75 205.18-2.75 205.18 0Z" opacity="1" transform="matrix(1,0,0,1,0,0)" fill="white" class="wordmark-text-0" id="SvgjsPath1006"></path></svg></g></svg></g><g transform="matrix(1,0,0,1,0,89.31893329285143)"><svg viewBox="0 0 232.209792 20.763780698164776" height="20.763780698164776" width="232.209792"><g transform="matrix(1,0,0,1,0,0)"><svg width="232.209792" viewBox="-0.5 -33.75 384.11 34.35" height="20.763780698164776" data-palette-color="#bb84e8"></svg></g></svg></g></svg></g></svg></g><g><svg viewBox="0 0 245.65351679999995 226.15574723866663" height="226.15574723866663" width="245.65351679999995"><g><svg xmlns="http://www.w3.org/2000/svg" xmlns:xlink="http://www.w3.org/1999/xlink" version="1.1" x="0" y="0" viewBox="9.398 12.339999999999998 80.193 73.82799999999999" enable-background="new 0 0 100 100" xml:space="preserve" height="226.15574723866663" width="245.65351679999995" class="icon-icon-0" data-fill-palette-color="accent" id="SvgjsSvg1004"></svg></g></svg></g></svg></g><defs><mask></mask></defs></svg></g></mask><linearGradient x1="0" x2="1" y1="0.548" y2="0.55" id="72a09824-d485-4383-813d-f40b7225dcee"><stop stop-color="#ff6cab" offset="0"></stop><stop stop-color="#7366ff" offset="1"></stop></linearGradient><rect width="395.52" height="135.66501247823584" fill="url(#72a09824-d485-4383-813d-f40b7225dcee)" mask="url(#700e6357-c2b8-4975-a266-41c393c8346c)" data-fill-palette-color="primary"></rect></svg><rect width="395.52" height="135.66501247823584" fill="none" stroke="none" visibility="hidden"></rect></g></svg></g></svg>